<mxfile host="65bd71144e">
    <diagram name="Page-1" id="kOlcsIJdFL6Im8wO5byo">
        <mxGraphModel dx="1136" dy="607" grid="1" gridSize="10" guides="1" tooltips="1" connect="1" arrows="1" fold="1" page="1" pageScale="1" pageWidth="850" pageHeight="1100" math="0" shadow="0">
            <root>
                <mxCell id="0"/>
                <mxCell id="1" parent="0"/>
                <mxCell id="Qq9PeL-BkuDXRJYMj3qO-4" value="" style="edgeStyle=orthogonalEdgeStyle;rounded=0;orthogonalLoop=1;jettySize=auto;html=1;entryX=0;entryY=0.5;entryDx=0;entryDy=0;" parent="1" source="Qq9PeL-BkuDXRJYMj3qO-2" target="Qq9PeL-BkuDXRJYMj3qO-25" edge="1">
                    <mxGeometry relative="1" as="geometry"/>
                </mxCell>
                <mxCell id="Qq9PeL-BkuDXRJYMj3qO-2" value="Start" style="rounded=1;whiteSpace=wrap;html=1;" parent="1" vertex="1">
                    <mxGeometry x="16.25" width="90" height="30" as="geometry"/>
                </mxCell>
                <mxCell id="3" value="" style="edgeStyle=none;html=1;" edge="1" parent="1" source="Qq9PeL-BkuDXRJYMj3qO-3" target="2">
                    <mxGeometry relative="1" as="geometry"/>
                </mxCell>
                <mxCell id="Qq9PeL-BkuDXRJYMj3qO-3" value="&lt;div&gt;Print &quot;Please enter&amp;nbsp;&lt;/div&gt;&lt;div&gt;two numbers&quot;&lt;/div&gt;" style="shape=parallelogram;perimeter=parallelogramPerimeter;whiteSpace=wrap;html=1;fixedSize=1;" parent="1" vertex="1">
                    <mxGeometry x="6.26" y="60" width="167.49" height="40" as="geometry"/>
                </mxCell>
                <mxCell id="Qq9PeL-BkuDXRJYMj3qO-9" value="" style="edgeStyle=orthogonalEdgeStyle;rounded=0;orthogonalLoop=1;jettySize=auto;html=1;" parent="1" source="Qq9PeL-BkuDXRJYMj3qO-5" target="Qq9PeL-BkuDXRJYMj3qO-6" edge="1">
                    <mxGeometry relative="1" as="geometry"/>
                </mxCell>
                <mxCell id="Qq9PeL-BkuDXRJYMj3qO-10" value="False" style="edgeLabel;html=1;align=center;verticalAlign=middle;resizable=0;points=[];" parent="Qq9PeL-BkuDXRJYMj3qO-9" vertex="1" connectable="0">
                    <mxGeometry x="-0.1143" y="3" relative="1" as="geometry">
                        <mxPoint as="offset"/>
                    </mxGeometry>
                </mxCell>
                <mxCell id="Qq9PeL-BkuDXRJYMj3qO-12" value="" style="edgeStyle=orthogonalEdgeStyle;rounded=0;orthogonalLoop=1;jettySize=auto;html=1;" parent="1" source="Qq9PeL-BkuDXRJYMj3qO-5" target="Qq9PeL-BkuDXRJYMj3qO-11" edge="1">
                    <mxGeometry relative="1" as="geometry"/>
                </mxCell>
                <mxCell id="Qq9PeL-BkuDXRJYMj3qO-13" value="True" style="edgeLabel;html=1;align=center;verticalAlign=middle;resizable=0;points=[];" parent="Qq9PeL-BkuDXRJYMj3qO-12" vertex="1" connectable="0">
                    <mxGeometry x="-0.0667" relative="1" as="geometry">
                        <mxPoint as="offset"/>
                    </mxGeometry>
                </mxCell>
                <mxCell id="Qq9PeL-BkuDXRJYMj3qO-5" value="&lt;div&gt;number1&amp;gt;&lt;/div&gt;&lt;div&gt;number2&lt;br&gt;&lt;/div&gt;" style="rhombus;whiteSpace=wrap;html=1;" parent="1" vertex="1">
                    <mxGeometry x="50.01" y="190" width="80" height="80" as="geometry"/>
                </mxCell>
                <mxCell id="Qq9PeL-BkuDXRJYMj3qO-8" value="" style="edgeStyle=orthogonalEdgeStyle;rounded=0;orthogonalLoop=1;jettySize=auto;html=1;entryX=0.5;entryY=0;entryDx=0;entryDy=0;exitX=1;exitY=0.5;exitDx=0;exitDy=0;" parent="1" source="Qq9PeL-BkuDXRJYMj3qO-6" target="anagKyov_4HXBT-UOk7y-1" edge="1">
                    <mxGeometry relative="1" as="geometry">
                        <mxPoint x="310.63" y="230" as="sourcePoint"/>
                        <mxPoint x="390" y="560" as="targetPoint"/>
                        <Array as="points">
                            <mxPoint x="360" y="230"/>
                        </Array>
                    </mxGeometry>
                </mxCell>
                <mxCell id="Qq9PeL-BkuDXRJYMj3qO-20" value="True" style="edgeLabel;html=1;align=center;verticalAlign=middle;resizable=0;points=[];" parent="Qq9PeL-BkuDXRJYMj3qO-8" vertex="1" connectable="0">
                    <mxGeometry x="-0.3" y="-1" relative="1" as="geometry">
                        <mxPoint as="offset"/>
                    </mxGeometry>
                </mxCell>
                <mxCell id="Qq9PeL-BkuDXRJYMj3qO-18" value="" style="edgeStyle=orthogonalEdgeStyle;rounded=0;orthogonalLoop=1;jettySize=auto;html=1;" parent="1" source="Qq9PeL-BkuDXRJYMj3qO-6" target="Qq9PeL-BkuDXRJYMj3qO-16" edge="1">
                    <mxGeometry relative="1" as="geometry"/>
                </mxCell>
                <mxCell id="Qq9PeL-BkuDXRJYMj3qO-19" value="False" style="edgeLabel;html=1;align=center;verticalAlign=middle;resizable=0;points=[];" parent="Qq9PeL-BkuDXRJYMj3qO-18" vertex="1" connectable="0">
                    <mxGeometry x="-0.52" relative="1" as="geometry">
                        <mxPoint as="offset"/>
                    </mxGeometry>
                </mxCell>
                <mxCell id="Qq9PeL-BkuDXRJYMj3qO-6" value="&lt;div&gt;number1=&lt;/div&gt;&lt;div&gt;number2&lt;br&gt;&lt;/div&gt;" style="rhombus;whiteSpace=wrap;html=1;" parent="1" vertex="1">
                    <mxGeometry x="200" y="190" width="80" height="80" as="geometry"/>
                </mxCell>
                <mxCell id="Qq9PeL-BkuDXRJYMj3qO-22" value="" style="edgeStyle=orthogonalEdgeStyle;rounded=0;orthogonalLoop=1;jettySize=auto;html=1;" parent="1" source="Qq9PeL-BkuDXRJYMj3qO-11" target="Qq9PeL-BkuDXRJYMj3qO-21" edge="1">
                    <mxGeometry relative="1" as="geometry"/>
                </mxCell>
                <mxCell id="Qq9PeL-BkuDXRJYMj3qO-11" value="temp=&lt;br&gt;&lt;div&gt;number1-number2&lt;/div&gt;" style="whiteSpace=wrap;html=1;" parent="1" vertex="1">
                    <mxGeometry x="30" y="320" width="120" height="60" as="geometry"/>
                </mxCell>
                <mxCell id="Qq9PeL-BkuDXRJYMj3qO-24" value="" style="edgeStyle=orthogonalEdgeStyle;rounded=0;orthogonalLoop=1;jettySize=auto;html=1;entryX=0.5;entryY=0;entryDx=0;entryDy=0;" parent="1" source="Qq9PeL-BkuDXRJYMj3qO-16" target="Qq9PeL-BkuDXRJYMj3qO-21" edge="1">
                    <mxGeometry relative="1" as="geometry">
                        <mxPoint x="240" y="460" as="targetPoint"/>
                        <Array as="points">
                            <mxPoint x="240" y="400"/>
                            <mxPoint x="90" y="400"/>
                        </Array>
                    </mxGeometry>
                </mxCell>
                <mxCell id="Qq9PeL-BkuDXRJYMj3qO-16" value="&lt;div&gt;temp=&lt;/div&gt;&lt;div&gt;number2-number1&lt;/div&gt;" style="whiteSpace=wrap;html=1;" parent="1" vertex="1">
                    <mxGeometry x="180" y="320" width="120" height="60" as="geometry"/>
                </mxCell>
                <mxCell id="Qq9PeL-BkuDXRJYMj3qO-28" value="" style="edgeStyle=orthogonalEdgeStyle;rounded=0;orthogonalLoop=1;jettySize=auto;html=1;" parent="1" source="Qq9PeL-BkuDXRJYMj3qO-21" target="Qq9PeL-BkuDXRJYMj3qO-27" edge="1">
                    <mxGeometry relative="1" as="geometry"/>
                </mxCell>
                <mxCell id="Qq9PeL-BkuDXRJYMj3qO-21" value="&lt;div&gt;temp-2&lt;/div&gt;&lt;div&gt;n+1&lt;br&gt;&lt;/div&gt;" style="whiteSpace=wrap;html=1;" parent="1" vertex="1">
                    <mxGeometry x="30" y="430" width="120" height="60" as="geometry"/>
                </mxCell>
                <mxCell id="Qq9PeL-BkuDXRJYMj3qO-26" value="" style="edgeStyle=orthogonalEdgeStyle;rounded=0;orthogonalLoop=1;jettySize=auto;html=1;" parent="1" source="Qq9PeL-BkuDXRJYMj3qO-25" target="Qq9PeL-BkuDXRJYMj3qO-3" edge="1">
                    <mxGeometry relative="1" as="geometry">
                        <Array as="points">
                            <mxPoint x="180" y="70"/>
                            <mxPoint x="85" y="70"/>
                        </Array>
                    </mxGeometry>
                </mxCell>
                <mxCell id="Qq9PeL-BkuDXRJYMj3qO-25" value="n=0" style="whiteSpace=wrap;html=1;" parent="1" vertex="1">
                    <mxGeometry x="150" y="20" width="70" height="20" as="geometry"/>
                </mxCell>
                <mxCell id="Qq9PeL-BkuDXRJYMj3qO-30" value="" style="edgeStyle=orthogonalEdgeStyle;rounded=0;orthogonalLoop=1;jettySize=auto;html=1;entryX=1;entryY=0.5;entryDx=0;entryDy=0;" parent="1" source="Qq9PeL-BkuDXRJYMj3qO-27" target="Qq9PeL-BkuDXRJYMj3qO-21" edge="1">
                    <mxGeometry relative="1" as="geometry">
                        <mxPoint x="190" y="560" as="targetPoint"/>
                        <Array as="points">
                            <mxPoint x="170" y="560"/>
                            <mxPoint x="170" y="460"/>
                        </Array>
                    </mxGeometry>
                </mxCell>
                <mxCell id="Qq9PeL-BkuDXRJYMj3qO-31" value="No" style="edgeLabel;html=1;align=center;verticalAlign=middle;resizable=0;points=[];" parent="Qq9PeL-BkuDXRJYMj3qO-30" vertex="1" connectable="0">
                    <mxGeometry x="0.8358" y="2" relative="1" as="geometry">
                        <mxPoint x="-13" y="98" as="offset"/>
                    </mxGeometry>
                </mxCell>
                <mxCell id="Qq9PeL-BkuDXRJYMj3qO-34" value="" style="edgeStyle=orthogonalEdgeStyle;rounded=0;orthogonalLoop=1;jettySize=auto;html=1;" parent="1" source="Qq9PeL-BkuDXRJYMj3qO-27" target="Qq9PeL-BkuDXRJYMj3qO-33" edge="1">
                    <mxGeometry relative="1" as="geometry"/>
                </mxCell>
                <mxCell id="Qq9PeL-BkuDXRJYMj3qO-46" value="Yes" style="edgeLabel;html=1;align=center;verticalAlign=middle;resizable=0;points=[];" parent="Qq9PeL-BkuDXRJYMj3qO-34" vertex="1" connectable="0">
                    <mxGeometry x="0.2" y="-3" relative="1" as="geometry">
                        <mxPoint as="offset"/>
                    </mxGeometry>
                </mxCell>
                <mxCell id="Qq9PeL-BkuDXRJYMj3qO-27" value="temp&amp;lt;1" style="rhombus;whiteSpace=wrap;html=1;" parent="1" vertex="1">
                    <mxGeometry x="50" y="520" width="80" height="80" as="geometry"/>
                </mxCell>
                <mxCell id="Qq9PeL-BkuDXRJYMj3qO-39" value="" style="edgeStyle=orthogonalEdgeStyle;rounded=0;orthogonalLoop=1;jettySize=auto;html=1;" parent="1" source="Qq9PeL-BkuDXRJYMj3qO-33" target="Qq9PeL-BkuDXRJYMj3qO-38" edge="1">
                    <mxGeometry relative="1" as="geometry"/>
                </mxCell>
                <mxCell id="Qq9PeL-BkuDXRJYMj3qO-45" value="No" style="edgeLabel;html=1;align=center;verticalAlign=middle;resizable=0;points=[];" parent="Qq9PeL-BkuDXRJYMj3qO-39" vertex="1" connectable="0">
                    <mxGeometry x="-0.35" y="4" relative="1" as="geometry">
                        <mxPoint as="offset"/>
                    </mxGeometry>
                </mxCell>
                <mxCell id="Qq9PeL-BkuDXRJYMj3qO-41" value="" style="edgeStyle=orthogonalEdgeStyle;rounded=0;orthogonalLoop=1;jettySize=auto;html=1;" parent="1" source="Qq9PeL-BkuDXRJYMj3qO-33" target="Qq9PeL-BkuDXRJYMj3qO-40" edge="1">
                    <mxGeometry relative="1" as="geometry"/>
                </mxCell>
                <mxCell id="Qq9PeL-BkuDXRJYMj3qO-43" value="Yes" style="edgeLabel;html=1;align=center;verticalAlign=middle;resizable=0;points=[];" parent="Qq9PeL-BkuDXRJYMj3qO-41" vertex="1" connectable="0">
                    <mxGeometry x="-0.3682" y="-2" relative="1" as="geometry">
                        <mxPoint as="offset"/>
                    </mxGeometry>
                </mxCell>
                <mxCell id="Qq9PeL-BkuDXRJYMj3qO-33" value="temp=0" style="rhombus;whiteSpace=wrap;html=1;" parent="1" vertex="1">
                    <mxGeometry x="50" y="630" width="80" height="80" as="geometry"/>
                </mxCell>
                <mxCell id="Qq9PeL-BkuDXRJYMj3qO-58" value="" style="edgeStyle=orthogonalEdgeStyle;rounded=0;orthogonalLoop=1;jettySize=auto;html=1;" parent="1" source="Qq9PeL-BkuDXRJYMj3qO-35" edge="1">
                    <mxGeometry relative="1" as="geometry">
                        <mxPoint x="365" y="780" as="targetPoint"/>
                    </mxGeometry>
                </mxCell>
                <mxCell id="Qq9PeL-BkuDXRJYMj3qO-35" value="Display n-1" style="shape=parallelogram;perimeter=parallelogramPerimeter;whiteSpace=wrap;html=1;fixedSize=1;" parent="1" vertex="1">
                    <mxGeometry x="305" y="640" width="120" height="60" as="geometry"/>
                </mxCell>
                <mxCell id="Qq9PeL-BkuDXRJYMj3qO-54" value="" style="edgeStyle=orthogonalEdgeStyle;rounded=0;orthogonalLoop=1;jettySize=auto;html=1;entryX=0;entryY=0.5;entryDx=0;entryDy=0;" parent="1" source="Qq9PeL-BkuDXRJYMj3qO-38" target="Qq9PeL-BkuDXRJYMj3qO-52" edge="1">
                    <mxGeometry relative="1" as="geometry">
                        <mxPoint x="90" y="880" as="targetPoint"/>
                        <Array as="points">
                            <mxPoint x="90" y="870"/>
                        </Array>
                    </mxGeometry>
                </mxCell>
                <mxCell id="Qq9PeL-BkuDXRJYMj3qO-38" value="display n" style="shape=parallelogram;perimeter=parallelogramPerimeter;whiteSpace=wrap;html=1;fixedSize=1;" parent="1" vertex="1">
                    <mxGeometry x="30" y="750" width="120" height="60" as="geometry"/>
                </mxCell>
                <mxCell id="Qq9PeL-BkuDXRJYMj3qO-42" value="" style="edgeStyle=orthogonalEdgeStyle;rounded=0;orthogonalLoop=1;jettySize=auto;html=1;" parent="1" source="Qq9PeL-BkuDXRJYMj3qO-40" target="Qq9PeL-BkuDXRJYMj3qO-35" edge="1">
                    <mxGeometry relative="1" as="geometry"/>
                </mxCell>
                <mxCell id="Qq9PeL-BkuDXRJYMj3qO-47" value="no" style="edgeLabel;html=1;align=center;verticalAlign=middle;resizable=0;points=[];" parent="Qq9PeL-BkuDXRJYMj3qO-42" vertex="1" connectable="0">
                    <mxGeometry x="0.2754" y="-1" relative="1" as="geometry">
                        <mxPoint as="offset"/>
                    </mxGeometry>
                </mxCell>
                <mxCell id="Qq9PeL-BkuDXRJYMj3qO-49" value="" style="edgeStyle=orthogonalEdgeStyle;rounded=0;orthogonalLoop=1;jettySize=auto;html=1;" parent="1" source="Qq9PeL-BkuDXRJYMj3qO-40" target="Qq9PeL-BkuDXRJYMj3qO-48" edge="1">
                    <mxGeometry relative="1" as="geometry"/>
                </mxCell>
                <mxCell id="Qq9PeL-BkuDXRJYMj3qO-50" value="Yes" style="edgeLabel;html=1;align=center;verticalAlign=middle;resizable=0;points=[];" parent="Qq9PeL-BkuDXRJYMj3qO-49" vertex="1" connectable="0">
                    <mxGeometry x="-0.4106" y="2" relative="1" as="geometry">
                        <mxPoint as="offset"/>
                    </mxGeometry>
                </mxCell>
                <mxCell id="Qq9PeL-BkuDXRJYMj3qO-40" value="&lt;div&gt;(number1)&lt;/div&gt;&lt;div&gt;/2&lt;/div&gt;&lt;div&gt;is integer&lt;br&gt;&lt;/div&gt;" style="rhombus;whiteSpace=wrap;html=1;" parent="1" vertex="1">
                    <mxGeometry x="168.75" y="620" width="101.25" height="100" as="geometry"/>
                </mxCell>
                <mxCell id="Qq9PeL-BkuDXRJYMj3qO-56" value="" style="edgeStyle=orthogonalEdgeStyle;rounded=0;orthogonalLoop=1;jettySize=auto;html=1;entryX=0.5;entryY=0;entryDx=0;entryDy=0;" parent="1" source="Qq9PeL-BkuDXRJYMj3qO-48" target="Qq9PeL-BkuDXRJYMj3qO-52" edge="1">
                    <mxGeometry relative="1" as="geometry">
                        <mxPoint x="220.005" y="880" as="targetPoint"/>
                    </mxGeometry>
                </mxCell>
                <mxCell id="Qq9PeL-BkuDXRJYMj3qO-48" value="Display n+1" style="shape=parallelogram;perimeter=parallelogramPerimeter;whiteSpace=wrap;html=1;fixedSize=1;" parent="1" vertex="1">
                    <mxGeometry x="160.005" y="750" width="120" height="60" as="geometry"/>
                </mxCell>
                <mxCell id="Qq9PeL-BkuDXRJYMj3qO-52" value="End" style="rounded=1;whiteSpace=wrap;html=1;" parent="1" vertex="1">
                    <mxGeometry x="320" y="840" width="120" height="60" as="geometry"/>
                </mxCell>
                <mxCell id="anagKyov_4HXBT-UOk7y-3" value="" style="edgeStyle=orthogonalEdgeStyle;rounded=0;orthogonalLoop=1;jettySize=auto;html=1;entryX=0.5;entryY=0;entryDx=0;entryDy=0;" parent="1" source="anagKyov_4HXBT-UOk7y-1" target="Qq9PeL-BkuDXRJYMj3qO-40" edge="1">
                    <mxGeometry relative="1" as="geometry">
                        <mxPoint x="360" y="550" as="targetPoint"/>
                        <Array as="points">
                            <mxPoint x="360" y="500"/>
                            <mxPoint x="219" y="500"/>
                        </Array>
                    </mxGeometry>
                </mxCell>
                <mxCell id="anagKyov_4HXBT-UOk7y-1" value="n=1" style="whiteSpace=wrap;html=1;" parent="1" vertex="1">
                    <mxGeometry x="300" y="410" width="120" height="60" as="geometry"/>
                </mxCell>
                <mxCell id="4" value="" style="edgeStyle=none;html=1;" edge="1" parent="1" source="2" target="Qq9PeL-BkuDXRJYMj3qO-5">
                    <mxGeometry relative="1" as="geometry"/>
                </mxCell>
                <mxCell id="2" value="&lt;div&gt;Input1=number1&lt;/div&gt;&lt;div&gt;Input2=number2&lt;/div&gt;" style="shape=parallelogram;perimeter=parallelogramPerimeter;whiteSpace=wrap;html=1;fixedSize=1;" vertex="1" parent="1">
                    <mxGeometry x="25.01" y="120" width="129.99" height="40" as="geometry"/>
                </mxCell>
            </root>
        </mxGraphModel>
    </diagram>
</mxfile>